<?xml version="1.0" encoding="UTF-8" standalone="no"?>
<!DOCTYPE svg PUBLIC "-//W3C//DTD SVG 1.1//EN"
 "http://www.w3.org/Graphics/SVG/1.1/DTD/svg11.dtd">
<!-- Generated by graphviz version 3.0.0 (20220226.1711)
 -->
<!-- Title: snakemake_dag Pages: 1 -->
<svg width="263pt" height="476pt"
 viewBox="0.00 0.00 262.50 476.00" xmlns="http://www.w3.org/2000/svg" xmlns:xlink="http://www.w3.org/1999/xlink">
<g id="graph0" class="graph" transform="scale(1 1) rotate(0) translate(4 472)">
<title>snakemake_dag</title>
<polygon fill="white" stroke="transparent" points="-4,4 -4,-472 258.5,-472 258.5,4 -4,4"/>
<!-- 0 -->
<g id="node1" class="node">
<title>0</title>
<path fill="none" stroke="#d8ac56" stroke-width="2" d="M148,-36C148,-36 118,-36 118,-36 112,-36 106,-30 106,-24 106,-24 106,-12 106,-12 106,-6 112,0 118,0 118,0 148,0 148,0 154,0 160,-6 160,-12 160,-12 160,-24 160,-24 160,-30 154,-36 148,-36"/>
<text text-anchor="middle" x="133" y="-15.5" font-family="sans" font-size="10.00">end</text>
</g>
<!-- 1 -->
<g id="node2" class="node">
<title>1</title>
<path fill="none" stroke="#d88556" stroke-width="2" d="M113.5,-108C113.5,-108 68.5,-108 68.5,-108 62.5,-108 56.5,-102 56.5,-96 56.5,-96 56.5,-84 56.5,-84 56.5,-78 62.5,-72 68.5,-72 68.5,-72 113.5,-72 113.5,-72 119.5,-72 125.5,-78 125.5,-84 125.5,-84 125.5,-96 125.5,-96 125.5,-102 119.5,-108 113.5,-108"/>
<text text-anchor="middle" x="91" y="-87.5" font-family="sans" font-size="10.00">gene_fusion</text>
</g>
<!-- 1&#45;&gt;0 -->
<g id="edge2" class="edge">
<title>1&#45;&gt;0</title>
<path fill="none" stroke="grey" stroke-width="2" d="M101.38,-71.7C106.26,-63.56 112.19,-53.69 117.58,-44.7"/>
<polygon fill="grey" stroke="grey" stroke-width="2" points="120.59,-46.48 122.74,-36.1 114.59,-42.88 120.59,-46.48"/>
</g>
<!-- 2 -->
<g id="node3" class="node">
<title>2</title>
<path fill="none" stroke="#d6d856" stroke-width="2" d="M117.5,-252C117.5,-252 60.5,-252 60.5,-252 54.5,-252 48.5,-246 48.5,-240 48.5,-240 48.5,-228 48.5,-228 48.5,-222 54.5,-216 60.5,-216 60.5,-216 117.5,-216 117.5,-216 123.5,-216 129.5,-222 129.5,-228 129.5,-228 129.5,-240 129.5,-240 129.5,-246 123.5,-252 117.5,-252"/>
<text text-anchor="middle" x="89" y="-231.5" font-family="sans" font-size="10.00">sam2bam_sort</text>
</g>
<!-- 2&#45;&gt;1 -->
<g id="edge3" class="edge">
<title>2&#45;&gt;1</title>
<path fill="none" stroke="grey" stroke-width="2" d="M89.24,-215.87C89.58,-191.67 90.21,-147.21 90.61,-118.39"/>
<polygon fill="grey" stroke="grey" stroke-width="2" points="94.12,-118.24 90.76,-108.19 87.12,-118.14 94.12,-118.24"/>
</g>
<!-- 3 -->
<g id="node4" class="node">
<title>3</title>
<path fill="none" stroke="#afd856" stroke-width="2" d="M106.5,-324C106.5,-324 71.5,-324 71.5,-324 65.5,-324 59.5,-318 59.5,-312 59.5,-312 59.5,-300 59.5,-300 59.5,-294 65.5,-288 71.5,-288 71.5,-288 106.5,-288 106.5,-288 112.5,-288 118.5,-294 118.5,-300 118.5,-300 118.5,-312 118.5,-312 118.5,-318 112.5,-324 106.5,-324"/>
<text text-anchor="middle" x="89" y="-303.5" font-family="sans" font-size="10.00">alignment</text>
</g>
<!-- 3&#45;&gt;2 -->
<g id="edge4" class="edge">
<title>3&#45;&gt;2</title>
<path fill="none" stroke="grey" stroke-width="2" d="M89,-287.7C89,-279.98 89,-270.71 89,-262.11"/>
<polygon fill="grey" stroke="grey" stroke-width="2" points="92.5,-262.1 89,-252.1 85.5,-262.1 92.5,-262.1"/>
</g>
<!-- 4 -->
<g id="node5" class="node">
<title>4</title>
<path fill="none" stroke="#56d882" stroke-width="2" d="M68,-396C68,-396 12,-396 12,-396 6,-396 0,-390 0,-384 0,-384 0,-372 0,-372 0,-366 6,-360 12,-360 12,-360 68,-360 68,-360 74,-360 80,-366 80,-372 80,-372 80,-384 80,-384 80,-390 74,-396 68,-396"/>
<text text-anchor="middle" x="40" y="-375.5" font-family="sans" font-size="10.00">index_genome</text>
</g>
<!-- 4&#45;&gt;3 -->
<g id="edge6" class="edge">
<title>4&#45;&gt;3</title>
<path fill="none" stroke="grey" stroke-width="2" d="M52.11,-359.7C57.87,-351.47 64.86,-341.48 71.21,-332.42"/>
<polygon fill="grey" stroke="grey" stroke-width="2" points="74.16,-334.3 77.03,-324.1 68.42,-330.29 74.16,-334.3"/>
</g>
<!-- 5 -->
<g id="node6" class="node">
<title>5</title>
<path fill="none" stroke="#56d8a9" stroke-width="2" d="M157.5,-396C157.5,-396 110.5,-396 110.5,-396 104.5,-396 98.5,-390 98.5,-384 98.5,-384 98.5,-372 98.5,-372 98.5,-366 104.5,-360 110.5,-360 110.5,-360 157.5,-360 157.5,-360 163.5,-360 169.5,-366 169.5,-372 169.5,-372 169.5,-384 169.5,-384 169.5,-390 163.5,-396 157.5,-396"/>
<text text-anchor="middle" x="134" y="-375.5" font-family="sans" font-size="10.00">merge_fastq</text>
</g>
<!-- 5&#45;&gt;3 -->
<g id="edge5" class="edge">
<title>5&#45;&gt;3</title>
<path fill="none" stroke="grey" stroke-width="2" d="M122.88,-359.7C117.64,-351.56 111.3,-341.69 105.52,-332.7"/>
<polygon fill="grey" stroke="grey" stroke-width="2" points="108.35,-330.62 100,-324.1 102.46,-334.41 108.35,-330.62"/>
</g>
<!-- 10 -->
<g id="node11" class="node">
<title>10</title>
<path fill="none" stroke="#56a9d8" stroke-width="2" d="M196,-324C196,-324 158,-324 158,-324 152,-324 146,-318 146,-312 146,-312 146,-300 146,-300 146,-294 152,-288 158,-288 158,-288 196,-288 196,-288 202,-288 208,-294 208,-300 208,-300 208,-312 208,-312 208,-318 202,-324 196,-324"/>
<text text-anchor="middle" x="177" y="-303.5" font-family="sans" font-size="10.00">map2trans</text>
</g>
<!-- 5&#45;&gt;10 -->
<g id="edge11" class="edge">
<title>5&#45;&gt;10</title>
<path fill="none" stroke="grey" stroke-width="2" d="M144.63,-359.7C149.63,-351.56 155.69,-341.69 161.21,-332.7"/>
<polygon fill="grey" stroke="grey" stroke-width="2" points="164.24,-334.46 166.49,-324.1 158.28,-330.79 164.24,-334.46"/>
</g>
<!-- 6 -->
<g id="node7" class="node">
<title>6</title>
<path fill="none" stroke="#d85656" stroke-width="2" d="M149,-468C149,-468 119,-468 119,-468 113,-468 107,-462 107,-456 107,-456 107,-444 107,-444 107,-438 113,-432 119,-432 119,-432 149,-432 149,-432 155,-432 161,-438 161,-444 161,-444 161,-456 161,-456 161,-462 155,-468 149,-468"/>
<text text-anchor="middle" x="134" y="-447.5" font-family="sans" font-size="10.00">trimming</text>
</g>
<!-- 6&#45;&gt;5 -->
<g id="edge7" class="edge">
<title>6&#45;&gt;5</title>
<path fill="none" stroke="grey" stroke-width="2" d="M134,-431.7C134,-423.98 134,-414.71 134,-406.11"/>
<polygon fill="grey" stroke="grey" stroke-width="2" points="137.5,-406.1 134,-396.1 130.5,-406.1 137.5,-406.1"/>
</g>
<!-- 7 -->
<g id="node8" class="node">
<title>7</title>
<path fill="none" stroke="#59d856" stroke-width="2" d="M196.5,-108C196.5,-108 155.5,-108 155.5,-108 149.5,-108 143.5,-102 143.5,-96 143.5,-96 143.5,-84 143.5,-84 143.5,-78 149.5,-72 155.5,-72 155.5,-72 196.5,-72 196.5,-72 202.5,-72 208.5,-78 208.5,-84 208.5,-84 208.5,-96 208.5,-96 208.5,-102 202.5,-108 196.5,-108"/>
<text text-anchor="middle" x="176" y="-87.5" font-family="sans" font-size="10.00">trans2gene</text>
</g>
<!-- 7&#45;&gt;0 -->
<g id="edge1" class="edge">
<title>7&#45;&gt;0</title>
<path fill="none" stroke="grey" stroke-width="2" d="M165.37,-71.7C160.37,-63.56 154.31,-53.69 148.79,-44.7"/>
<polygon fill="grey" stroke="grey" stroke-width="2" points="151.72,-42.79 143.51,-36.1 145.76,-46.46 151.72,-42.79"/>
</g>
<!-- 8 -->
<g id="node9" class="node">
<title>8</title>
<path fill="none" stroke="#56d8d8" stroke-width="2" d="M203,-180C203,-180 149,-180 149,-180 143,-180 137,-174 137,-168 137,-168 137,-156 137,-156 137,-150 143,-144 149,-144 149,-144 203,-144 203,-144 209,-144 215,-150 215,-156 215,-156 215,-168 215,-168 215,-174 209,-180 203,-180"/>
<text text-anchor="middle" x="176" y="-159.5" font-family="sans" font-size="10.00">quantify_trans</text>
</g>
<!-- 8&#45;&gt;7 -->
<g id="edge8" class="edge">
<title>8&#45;&gt;7</title>
<path fill="none" stroke="grey" stroke-width="2" d="M176,-143.7C176,-135.98 176,-126.71 176,-118.11"/>
<polygon fill="grey" stroke="grey" stroke-width="2" points="179.5,-118.1 176,-108.1 172.5,-118.1 179.5,-118.1"/>
</g>
<!-- 9 -->
<g id="node10" class="node">
<title>9</title>
<path fill="none" stroke="#5682d8" stroke-width="2" d="M194.5,-252C194.5,-252 159.5,-252 159.5,-252 153.5,-252 147.5,-246 147.5,-240 147.5,-240 147.5,-228 147.5,-228 147.5,-222 153.5,-216 159.5,-216 159.5,-216 194.5,-216 194.5,-216 200.5,-216 206.5,-222 206.5,-228 206.5,-228 206.5,-240 206.5,-240 206.5,-246 200.5,-252 194.5,-252"/>
<text text-anchor="middle" x="177" y="-231.5" font-family="sans" font-size="10.00">sam2bam</text>
</g>
<!-- 9&#45;&gt;8 -->
<g id="edge9" class="edge">
<title>9&#45;&gt;8</title>
<path fill="none" stroke="grey" stroke-width="2" d="M176.75,-215.7C176.64,-207.98 176.51,-198.71 176.39,-190.11"/>
<polygon fill="grey" stroke="grey" stroke-width="2" points="179.89,-190.05 176.24,-180.1 172.89,-190.15 179.89,-190.05"/>
</g>
<!-- 10&#45;&gt;9 -->
<g id="edge10" class="edge">
<title>10&#45;&gt;9</title>
<path fill="none" stroke="grey" stroke-width="2" d="M177,-287.7C177,-279.98 177,-270.71 177,-262.11"/>
<polygon fill="grey" stroke="grey" stroke-width="2" points="180.5,-262.1 177,-252.1 173.5,-262.1 180.5,-262.1"/>
</g>
<!-- 11 -->
<g id="node12" class="node">
<title>11</title>
<path fill="none" stroke="#80d856" stroke-width="2" d="M242.5,-396C242.5,-396 199.5,-396 199.5,-396 193.5,-396 187.5,-390 187.5,-384 187.5,-384 187.5,-372 187.5,-372 187.5,-366 193.5,-360 199.5,-360 199.5,-360 242.5,-360 242.5,-360 248.5,-360 254.5,-366 254.5,-372 254.5,-372 254.5,-384 254.5,-384 254.5,-390 248.5,-396 242.5,-396"/>
<text text-anchor="middle" x="221" y="-375.5" font-family="sans" font-size="10.00">index_trans</text>
</g>
<!-- 11&#45;&gt;10 -->
<g id="edge12" class="edge">
<title>11&#45;&gt;10</title>
<path fill="none" stroke="grey" stroke-width="2" d="M210.12,-359.7C205.01,-351.56 198.8,-341.69 193.16,-332.7"/>
<polygon fill="grey" stroke="grey" stroke-width="2" points="196.04,-330.71 187.75,-324.1 190.11,-334.43 196.04,-330.71"/>
</g>
</g>
</svg>
