<?xml version="1.0" encoding="UTF-8" standalone="no"?>
<!DOCTYPE svg PUBLIC "-//W3C//DTD SVG 1.1//EN"
 "http://www.w3.org/Graphics/SVG/1.1/DTD/svg11.dtd">
<!-- Generated by graphviz version 3.0.0 (20220226.1711)
 -->
<!-- Title: snakemake_dag Pages: 1 -->
<svg width="277pt" height="476pt"
 viewBox="0.00 0.00 277.00 476.00" xmlns="http://www.w3.org/2000/svg" xmlns:xlink="http://www.w3.org/1999/xlink">
<g id="graph0" class="graph" transform="scale(1 1) rotate(0) translate(4 472)">
<title>snakemake_dag</title>
<polygon fill="white" stroke="transparent" points="-4,4 -4,-472 273,-472 273,4 -4,4"/>
<!-- 0 -->
<g id="node1" class="node">
<title>0</title>
<path fill="none" stroke="#56d8b9" stroke-width="2" d="M122.5,-36C122.5,-36 92.5,-36 92.5,-36 86.5,-36 80.5,-30 80.5,-24 80.5,-24 80.5,-12 80.5,-12 80.5,-6 86.5,0 92.5,0 92.5,0 122.5,0 122.5,0 128.5,0 134.5,-6 134.5,-12 134.5,-12 134.5,-24 134.5,-24 134.5,-30 128.5,-36 122.5,-36"/>
<text text-anchor="middle" x="107.5" y="-15.5" font-family="sans" font-size="10.00">end</text>
</g>
<!-- 1 -->
<g id="node2" class="node">
<title>1</title>
<path fill="none" stroke="#d87d56" stroke-width="2" d="M67,-108C67,-108 12,-108 12,-108 6,-108 0,-102 0,-96 0,-96 0,-84 0,-84 0,-78 6,-72 12,-72 12,-72 67,-72 67,-72 73,-72 79,-78 79,-84 79,-84 79,-96 79,-96 79,-102 73,-108 67,-108"/>
<text text-anchor="middle" x="39.5" y="-87.5" font-family="sans" font-size="10.00">QC_sequence</text>
</g>
<!-- 1&#45;&gt;0 -->
<g id="edge2" class="edge">
<title>1&#45;&gt;0</title>
<path fill="none" stroke="grey" stroke-width="2" d="M56.31,-71.7C64.63,-63.14 74.81,-52.66 83.89,-43.3"/>
<polygon fill="grey" stroke="grey" stroke-width="2" points="86.43,-45.72 90.88,-36.1 81.41,-40.84 86.43,-45.72"/>
</g>
<!-- 2 -->
<g id="node3" class="node">
<title>2</title>
<path fill="none" stroke="#8fd856" stroke-width="2" d="M122,-180C122,-180 77,-180 77,-180 71,-180 65,-174 65,-168 65,-168 65,-156 65,-156 65,-150 71,-144 77,-144 77,-144 122,-144 122,-144 128,-144 134,-150 134,-156 134,-156 134,-168 134,-168 134,-174 128,-180 122,-180"/>
<text text-anchor="middle" x="99.5" y="-159.5" font-family="sans" font-size="10.00">gene_fusion</text>
</g>
<!-- 2&#45;&gt;0 -->
<g id="edge1" class="edge">
<title>2&#45;&gt;0</title>
<path fill="none" stroke="grey" stroke-width="2" d="M100.46,-143.87C101.83,-119.67 104.33,-75.21 105.96,-46.39"/>
<polygon fill="grey" stroke="grey" stroke-width="2" points="109.46,-46.37 106.53,-36.19 102.47,-45.98 109.46,-46.37"/>
</g>
<!-- 3 -->
<g id="node4" class="node">
<title>3</title>
<path fill="none" stroke="#b6d856" stroke-width="2" d="M128,-252C128,-252 71,-252 71,-252 65,-252 59,-246 59,-240 59,-240 59,-228 59,-228 59,-222 65,-216 71,-216 71,-216 128,-216 128,-216 134,-216 140,-222 140,-228 140,-228 140,-240 140,-240 140,-246 134,-252 128,-252"/>
<text text-anchor="middle" x="99.5" y="-231.5" font-family="sans" font-size="10.00">sam2bam_sort</text>
</g>
<!-- 3&#45;&gt;2 -->
<g id="edge4" class="edge">
<title>3&#45;&gt;2</title>
<path fill="none" stroke="grey" stroke-width="2" d="M99.5,-215.7C99.5,-207.98 99.5,-198.71 99.5,-190.11"/>
<polygon fill="grey" stroke="grey" stroke-width="2" points="103,-190.1 99.5,-180.1 96,-190.1 103,-190.1"/>
</g>
<!-- 4 -->
<g id="node5" class="node">
<title>4</title>
<path fill="none" stroke="#68d856" stroke-width="2" d="M117,-324C117,-324 82,-324 82,-324 76,-324 70,-318 70,-312 70,-312 70,-300 70,-300 70,-294 76,-288 82,-288 82,-288 117,-288 117,-288 123,-288 129,-294 129,-300 129,-300 129,-312 129,-312 129,-318 123,-324 117,-324"/>
<text text-anchor="middle" x="99.5" y="-303.5" font-family="sans" font-size="10.00">alignment</text>
</g>
<!-- 4&#45;&gt;3 -->
<g id="edge5" class="edge">
<title>4&#45;&gt;3</title>
<path fill="none" stroke="grey" stroke-width="2" d="M99.5,-287.7C99.5,-279.98 99.5,-270.71 99.5,-262.11"/>
<polygon fill="grey" stroke="grey" stroke-width="2" points="103,-262.1 99.5,-252.1 96,-262.1 103,-262.1"/>
</g>
<!-- 5 -->
<g id="node6" class="node">
<title>5</title>
<path fill="none" stroke="#d85656" stroke-width="2" d="M82.5,-396C82.5,-396 26.5,-396 26.5,-396 20.5,-396 14.5,-390 14.5,-384 14.5,-384 14.5,-372 14.5,-372 14.5,-366 20.5,-360 26.5,-360 26.5,-360 82.5,-360 82.5,-360 88.5,-360 94.5,-366 94.5,-372 94.5,-372 94.5,-384 94.5,-384 94.5,-390 88.5,-396 82.5,-396"/>
<text text-anchor="middle" x="54.5" y="-375.5" font-family="sans" font-size="10.00">index_genome</text>
</g>
<!-- 5&#45;&gt;4 -->
<g id="edge6" class="edge">
<title>5&#45;&gt;4</title>
<path fill="none" stroke="grey" stroke-width="2" d="M65.62,-359.7C70.86,-351.56 77.2,-341.69 82.98,-332.7"/>
<polygon fill="grey" stroke="grey" stroke-width="2" points="86.04,-334.41 88.5,-324.1 80.15,-330.62 86.04,-334.41"/>
</g>
<!-- 6 -->
<g id="node7" class="node">
<title>6</title>
<path fill="none" stroke="#56d0d8" stroke-width="2" d="M172,-396C172,-396 125,-396 125,-396 119,-396 113,-390 113,-384 113,-384 113,-372 113,-372 113,-366 119,-360 125,-360 125,-360 172,-360 172,-360 178,-360 184,-366 184,-372 184,-372 184,-384 184,-384 184,-390 178,-396 172,-396"/>
<text text-anchor="middle" x="148.5" y="-375.5" font-family="sans" font-size="10.00">merge_fastq</text>
</g>
<!-- 6&#45;&gt;4 -->
<g id="edge7" class="edge">
<title>6&#45;&gt;4</title>
<path fill="none" stroke="grey" stroke-width="2" d="M136.39,-359.7C130.63,-351.47 123.64,-341.48 117.29,-332.42"/>
<polygon fill="grey" stroke="grey" stroke-width="2" points="120.08,-330.29 111.47,-324.1 114.34,-334.3 120.08,-330.29"/>
</g>
<!-- 11 -->
<g id="node12" class="node">
<title>11</title>
<path fill="none" stroke="#56d892" stroke-width="2" d="M210.5,-324C210.5,-324 172.5,-324 172.5,-324 166.5,-324 160.5,-318 160.5,-312 160.5,-312 160.5,-300 160.5,-300 160.5,-294 166.5,-288 172.5,-288 172.5,-288 210.5,-288 210.5,-288 216.5,-288 222.5,-294 222.5,-300 222.5,-300 222.5,-312 222.5,-312 222.5,-318 216.5,-324 210.5,-324"/>
<text text-anchor="middle" x="191.5" y="-303.5" font-family="sans" font-size="10.00">map2trans</text>
</g>
<!-- 6&#45;&gt;11 -->
<g id="edge13" class="edge">
<title>6&#45;&gt;11</title>
<path fill="none" stroke="grey" stroke-width="2" d="M159.13,-359.7C164.13,-351.56 170.19,-341.69 175.71,-332.7"/>
<polygon fill="grey" stroke="grey" stroke-width="2" points="178.74,-334.46 180.99,-324.1 172.78,-330.79 178.74,-334.46"/>
</g>
<!-- 7 -->
<g id="node8" class="node">
<title>7</title>
<path fill="none" stroke="#567bd8" stroke-width="2" d="M163.5,-468C163.5,-468 133.5,-468 133.5,-468 127.5,-468 121.5,-462 121.5,-456 121.5,-456 121.5,-444 121.5,-444 121.5,-438 127.5,-432 133.5,-432 133.5,-432 163.5,-432 163.5,-432 169.5,-432 175.5,-438 175.5,-444 175.5,-444 175.5,-456 175.5,-456 175.5,-462 169.5,-468 163.5,-468"/>
<text text-anchor="middle" x="148.5" y="-447.5" font-family="sans" font-size="10.00">trimming</text>
</g>
<!-- 7&#45;&gt;6 -->
<g id="edge8" class="edge">
<title>7&#45;&gt;6</title>
<path fill="none" stroke="grey" stroke-width="2" d="M148.5,-431.7C148.5,-423.98 148.5,-414.71 148.5,-406.11"/>
<polygon fill="grey" stroke="grey" stroke-width="2" points="152,-406.1 148.5,-396.1 145,-406.1 152,-406.1"/>
</g>
<!-- 8 -->
<g id="node9" class="node">
<title>8</title>
<path fill="none" stroke="#56a9d8" stroke-width="2" d="M204,-108C204,-108 163,-108 163,-108 157,-108 151,-102 151,-96 151,-96 151,-84 151,-84 151,-78 157,-72 163,-72 163,-72 204,-72 204,-72 210,-72 216,-78 216,-84 216,-84 216,-96 216,-96 216,-102 210,-108 204,-108"/>
<text text-anchor="middle" x="183.5" y="-87.5" font-family="sans" font-size="10.00">trans2gene</text>
</g>
<!-- 8&#45;&gt;0 -->
<g id="edge3" class="edge">
<title>8&#45;&gt;0</title>
<path fill="none" stroke="grey" stroke-width="2" d="M164.71,-71.7C155.33,-63.05 143.82,-52.45 133.59,-43.03"/>
<polygon fill="grey" stroke="grey" stroke-width="2" points="135.8,-40.3 126.07,-36.1 131.05,-45.45 135.8,-40.3"/>
</g>
<!-- 9 -->
<g id="node10" class="node">
<title>9</title>
<path fill="none" stroke="#d8a456" stroke-width="2" d="M218.5,-180C218.5,-180 164.5,-180 164.5,-180 158.5,-180 152.5,-174 152.5,-168 152.5,-168 152.5,-156 152.5,-156 152.5,-150 158.5,-144 164.5,-144 164.5,-144 218.5,-144 218.5,-144 224.5,-144 230.5,-150 230.5,-156 230.5,-156 230.5,-168 230.5,-168 230.5,-174 224.5,-180 218.5,-180"/>
<text text-anchor="middle" x="191.5" y="-159.5" font-family="sans" font-size="10.00">quantify_trans</text>
</g>
<!-- 9&#45;&gt;8 -->
<g id="edge9" class="edge">
<title>9&#45;&gt;8</title>
<path fill="none" stroke="grey" stroke-width="2" d="M189.52,-143.7C188.64,-135.98 187.58,-126.71 186.6,-118.11"/>
<polygon fill="grey" stroke="grey" stroke-width="2" points="190.07,-117.64 185.45,-108.1 183.11,-118.44 190.07,-117.64"/>
</g>
<!-- 10 -->
<g id="node11" class="node">
<title>10</title>
<path fill="none" stroke="#56d86b" stroke-width="2" d="M209,-252C209,-252 174,-252 174,-252 168,-252 162,-246 162,-240 162,-240 162,-228 162,-228 162,-222 168,-216 174,-216 174,-216 209,-216 209,-216 215,-216 221,-222 221,-228 221,-228 221,-240 221,-240 221,-246 215,-252 209,-252"/>
<text text-anchor="middle" x="191.5" y="-231.5" font-family="sans" font-size="10.00">sam2bam</text>
</g>
<!-- 10&#45;&gt;9 -->
<g id="edge10" class="edge">
<title>10&#45;&gt;9</title>
<path fill="none" stroke="grey" stroke-width="2" d="M191.5,-215.7C191.5,-207.98 191.5,-198.71 191.5,-190.11"/>
<polygon fill="grey" stroke="grey" stroke-width="2" points="195,-190.1 191.5,-180.1 188,-190.1 195,-190.1"/>
</g>
<!-- 11&#45;&gt;10 -->
<g id="edge11" class="edge">
<title>11&#45;&gt;10</title>
<path fill="none" stroke="grey" stroke-width="2" d="M191.5,-287.7C191.5,-279.98 191.5,-270.71 191.5,-262.11"/>
<polygon fill="grey" stroke="grey" stroke-width="2" points="195,-262.1 191.5,-252.1 188,-262.1 195,-262.1"/>
</g>
<!-- 12 -->
<g id="node13" class="node">
<title>12</title>
<path fill="none" stroke="#d8cb56" stroke-width="2" d="M257,-396C257,-396 214,-396 214,-396 208,-396 202,-390 202,-384 202,-384 202,-372 202,-372 202,-366 208,-360 214,-360 214,-360 257,-360 257,-360 263,-360 269,-366 269,-372 269,-372 269,-384 269,-384 269,-390 263,-396 257,-396"/>
<text text-anchor="middle" x="235.5" y="-375.5" font-family="sans" font-size="10.00">index_trans</text>
</g>
<!-- 12&#45;&gt;11 -->
<g id="edge12" class="edge">
<title>12&#45;&gt;11</title>
<path fill="none" stroke="grey" stroke-width="2" d="M224.62,-359.7C219.51,-351.56 213.3,-341.69 207.66,-332.7"/>
<polygon fill="grey" stroke="grey" stroke-width="2" points="210.54,-330.71 202.25,-324.1 204.61,-334.43 210.54,-330.71"/>
</g>
</g>
</svg>
